<svg xmlns="http://www.w3.org/2000/svg" width="150" height="30" viewBox="0 0 150 30">
  <metadata><?xpacket begin="﻿" id="W5M0MpCehiHzreSzNTczkc9d"?>
<x:xmpmeta xmlns:x="adobe:ns:meta/" x:xmptk="Adobe XMP Core 5.6-c142 79.160924, 2017/07/13-01:06:39        ">
   <rdf:RDF xmlns:rdf="http://www.w3.org/1999/02/22-rdf-syntax-ns#">
      <rdf:Description rdf:about=""/>
   </rdf:RDF>
</x:xmpmeta>
                                                                                                    
                                                                                                    
                                                                                                    
                                                                                                    
                                                                                                    
                                                                                                    
                                                                                                    
                                                                                                    
                                                                                                    
                                                                                                    
                                                                                                    
                                                                                                    
                                                                                                    
                                                                                                    
                                                                                                    
                                                                                                    
                                                                                                    
                                                                                                    
                                                                                                    
                                                                                                    
                           
<?xpacket end="w"?></metadata>
<defs>
    <style>
      .cls-1 {
        fill: #850707;
        fill-rule: evenodd;
      }
    </style>
  </defs>
  <path id="形状_1" data-name="形状 1" class="cls-1" d="M146.881,22.759a5.866,5.866,0,0,1-2.126,1.79,4.733,4.733,0,0,1-1.862.547,4.288,4.288,0,0,1-1.843-.6,8.54,8.54,0,0,0-2.257-.829,9.216,9.216,0,0,0-1.542-.226,0.478,0.478,0,0,0-.527.3,5.2,5.2,0,0,0-.131,1.131,2.389,2.389,0,0,1-.847,2.054,2.606,2.606,0,0,1-1.147.471q-0.339,0-.451-0.792a13.943,13.943,0,0,1-.113-1.941,3.2,3.2,0,0,0-.132-1.3,0.728,0.728,0,0,0-.545-0.151,15.746,15.746,0,0,0-3.235.3,40.094,40.094,0,0,1-5.53.942,3.03,3.03,0,0,1-1.354-.188,0.757,0.757,0,0,1-.3-0.7,1.23,1.23,0,0,1,.3-0.848,0.832,0.832,0,0,1,.6-0.339,1.188,1.188,0,0,1,.432.057,1.668,1.668,0,0,0,.546.056,2.7,2.7,0,0,0,.978-0.226q2.181-1.018,7.673-1.282,0.753-.037.753-0.49a0.417,0.417,0,0,0-.489-0.452q-0.077,0-1.448.075a23,23,0,0,0-2.5.264,11.231,11.231,0,0,1-1.693.188,0.738,0.738,0,0,1-.7-0.245,1.245,1.245,0,0,1-.132-0.6,0.733,0.733,0,0,1,.263-0.584,3.072,3.072,0,0,0,.7-1.64,10.663,10.663,0,0,0,.207-1.659,1.682,1.682,0,0,0-.357-1,1.5,1.5,0,0,1-.358-0.792q0-.64.865-0.641a2.18,2.18,0,0,1,.527.057,2.1,2.1,0,0,0,.508.056,6.026,6.026,0,0,0,.921-0.113,35.1,35.1,0,0,1,7.26-.754,20.216,20.216,0,0,1,2.577.113,9.576,9.576,0,0,0,.959.113,3.614,3.614,0,0,0,.677-0.113,3.9,3.9,0,0,1,.865-0.113q0.791,0,.79.452a0.864,0.864,0,0,1-.188.49,11.57,11.57,0,0,0-1.241,2.337q-0.489,1.244-.79,1.847a3.874,3.874,0,0,1-.715,1.018l-0.714.716a1.343,1.343,0,0,1-.734.434,7.388,7.388,0,0,1-1.41.094c-0.653,0-.978.157-0.978,0.471s0.25,0.5.752,0.547a17.965,17.965,0,0,1,3.536.452,8.866,8.866,0,0,0,1.73.113,24.962,24.962,0,0,0,2.539-.132,6.731,6.731,0,0,0,1.674-.3,1.558,1.558,0,0,1,.545-0.17,0.143,0.143,0,0,1,.17.151A4.36,4.36,0,0,1,146.881,22.759Zm-7.11-4.617a5.491,5.491,0,0,0,.846-1.564,6.217,6.217,0,0,0,.565-1.677,0.534,0.534,0,0,0-.17-0.471,5.47,5.47,0,0,0-1.485-.207q-1.317-.094-2.9-0.094a20.887,20.887,0,0,0-3.78.415,8.75,8.75,0,0,0-2.483.66,1.171,1.171,0,0,0-.357.735l-0.226,1.96a0.887,0.887,0,0,0,.038.622,0.715,0.715,0,0,0,.526.132q2.6,0,5.868-.132A12.427,12.427,0,0,0,139.771,18.141Zm-8.539-.678a0.776,0.776,0,0,1-.319-0.754,0.982,0.982,0,0,1,.319-0.829A0.908,0.908,0,0,1,132,15.729a4.3,4.3,0,0,0,.884.094,4.62,4.62,0,0,0,.96-0.113,17.08,17.08,0,0,1,3.385-.264,4.659,4.659,0,0,1,.846.057,2.775,2.775,0,0,0,.546.056l0.677-.038c0.226,0,.338.051,0.338,0.151a1.888,1.888,0,0,1-.639.848,3.511,3.511,0,0,1-1.693.867,25.352,25.352,0,0,1-4.514.245A4.264,4.264,0,0,1,131.232,17.463Zm9.16-11.7a17.465,17.465,0,0,1,3.31.509,1.154,1.154,0,0,1,1.053.9,1.658,1.658,0,0,1-.677,1.187,3.288,3.288,0,0,0-.94,1.583,1.367,1.367,0,0,1-.6,1.018,5.419,5.419,0,0,0-.376.452,1.79,1.79,0,0,1-1.467.452,22.53,22.53,0,0,1-2.483-.151,24.552,24.552,0,0,0-2.708-.151,23.7,23.7,0,0,0-3.818.434q-2.465.434-2.709,0.528a1.137,1.137,0,0,1-.357.094q-0.564,0-.564-1.018a2.9,2.9,0,0,1,.131-0.848,4.32,4.32,0,0,0,.132-1.206,1.087,1.087,0,0,0-.639-1.074,1.427,1.427,0,0,1-1.054-1.055,0.7,0.7,0,0,1,.452-0.584,2.176,2.176,0,0,1,1.053-.245q0.6,0,1.223.057c0.413,0.038.752,0.057,1.015,0.057a4.95,4.95,0,0,0,1.317-.3,1.043,1.043,0,0,0,.921-0.754q0-.641-0.865-0.528a13.037,13.037,0,0,1-1.918.188q-1.731,0-1.731-1.432a0.4,0.4,0,0,1,.565-0.452,1.765,1.765,0,0,0,.413.038,1.64,1.64,0,0,0,.715-0.245,7.252,7.252,0,0,1,2.107-.433,33.575,33.575,0,0,1,3.761-.188,37.256,37.256,0,0,1,7.147.641,3.513,3.513,0,0,0,.847.094c0.188-.012.306-0.019,0.357-0.019a0.543,0.543,0,0,1,.677.528q0,1.094-1.768,1.093a8.215,8.215,0,0,1-1.655-.17,6.8,6.8,0,0,0-1.185-.17c-0.239,0-.357.188-0.357,0.565A0.59,0.59,0,0,0,140.392,5.759Zm-5.041,4.146q1.918,0,1.919-1.583a0.451,0.451,0,0,0-.489-0.528,6.9,6.9,0,0,0-1.148.113,0.753,0.753,0,0,0-.733.565,5.65,5.65,0,0,0-.075.942A0.449,0.449,0,0,0,135.351,9.905Zm-3.329-1.432a3.246,3.246,0,0,0-1.279.264,1.311,1.311,0,0,0-.62,1.357,0.4,0.4,0,0,0,.451.452,5.96,5.96,0,0,0,1.223-.226,1.11,1.11,0,0,0,.884-1.206A0.575,0.575,0,0,0,132.022,8.473Zm5.172-4.033q-0.075,0-1.034.057t-1.147.094a0.438,0.438,0,0,0-.264.132,0.449,0.449,0,0,0-.075.283q0,0.792.6,0.792l1.542-.113a1.528,1.528,0,0,0,.79-0.207,1,1,0,0,0,.113-0.584A0.436,0.436,0,0,0,137.194,4.439ZM139.6,8.284a2.612,2.612,0,0,0-.188,1.074q0,0.66,1.2.66a2.416,2.416,0,0,0,.546-0.075,0.808,0.808,0,0,0,.489-0.641,3.31,3.31,0,0,0,.169-0.886,0.449,0.449,0,0,0-.4-0.433,3.775,3.775,0,0,0-1.015-.113A0.793,0.793,0,0,0,139.6,8.284ZM122.731,6.343a22.26,22.26,0,0,0-2.765.339,11.388,11.388,0,0,1-2.031.245,1.5,1.5,0,0,1-1.166-.452A2.143,2.143,0,0,1,116.355,5q0-2.412,1.054-2.412a2.393,2.393,0,0,1,.432.057,3.734,3.734,0,0,0,.715.057,3.346,3.346,0,0,0,1.072-.226,7.032,7.032,0,0,1,1.994-.339,13.884,13.884,0,0,1,3.46.679,4.852,4.852,0,0,0,1.185.151,0.492,0.492,0,0,1,.583.528,2.593,2.593,0,0,1-1.316,1.772A5.179,5.179,0,0,1,122.731,6.343ZM117.86,8.755a11.089,11.089,0,0,1,3.272-.509q2.37,0,2.37,1.131a2.182,2.182,0,0,1-.714,1.376,4.7,4.7,0,0,0-1.035,1.753,24.846,24.846,0,0,0-.7,3.279q-0.377,2.3-.376,2.7t0.263,0.4a7.591,7.591,0,0,0,1.862-1.018,14.493,14.493,0,0,0,2.427-1.847,1.34,1.34,0,0,1,.545-0.339,0.126,0.126,0,0,1,.132.151,6.626,6.626,0,0,1-.565,1.47,10.041,10.041,0,0,1-1.184,2.036,17.249,17.249,0,0,1-1.6,1.734q-0.978.943-2.915,2.526t-2.483,1.922a1.83,1.83,0,0,1-.884.339q-0.6,0-.6-1.244a4.4,4.4,0,0,1,1.147-2.676,11.487,11.487,0,0,0,1.881-3.769,14.245,14.245,0,0,0,.734-4.222q0-1.394-.865-1.395a6.1,6.1,0,0,0-1.637.415,6,6,0,0,1-1.768.415,1.236,1.236,0,0,1-.959-0.415,2.311,2.311,0,0,1-.376-1.527,4.97,4.97,0,0,1,.15-1.508,0.861,0.861,0,0,1,.471-0.528,2.929,2.929,0,0,1,1.034-.132A9.4,9.4,0,0,0,117.86,8.755ZM103.265,29.28a4.611,4.611,0,0,1-4.251-2.752,25.972,25.972,0,0,0-1.768-2.808,18.642,18.642,0,0,0-1.354-1.753,1.006,1.006,0,0,0-.715-0.339,3.063,3.063,0,0,0-1.392,1.018,15.489,15.489,0,0,1-3.5,2.752,6.059,6.059,0,0,1-2.708.867,1.628,1.628,0,0,1-1.561-1.244,7.606,7.606,0,0,1-.47-2.714q0-.452.113-0.452a2.135,2.135,0,0,1,.527.848,1.279,1.279,0,0,0,1.166.848q1.053,0,3.536-1.885t2.483-2.337a0.536,0.536,0,0,0-.15-0.358q-0.151-.17-1.279-1.093a10.7,10.7,0,0,0-1.693-1.206,2.234,2.234,0,0,0-.959-0.283,1.723,1.723,0,0,0-.7.132,1.442,1.442,0,0,1-.583.132,2.056,2.056,0,0,1-.922-0.433,1.155,1.155,0,0,1-.639-0.773,0.88,0.88,0,0,1,.32-0.641q0.319-.3,3.442-2.394t4.758-3.053A5.961,5.961,0,0,0,96.8,8.02a1,1,0,0,1,1.016-.6,1.376,1.376,0,0,1,.809.283,0.808,0.808,0,0,1,.395.66q0,1.131-1.994,2.224a1.772,1.772,0,0,0-1.091.9,3.869,3.869,0,0,0,1.335,1.489,4.852,4.852,0,0,0,1.655,1.15,0.965,0.965,0,0,0,.677-0.415,1.182,1.182,0,0,0,.357-0.66,1.113,1.113,0,0,0-.3-0.622,5.4,5.4,0,0,1-.639-1.131,3.127,3.127,0,0,1-.338-1.112A0.343,0.343,0,0,1,99.09,9.83a3.821,3.821,0,0,1,1.485.622,3.9,3.9,0,0,0,1.9.622,2.195,2.195,0,0,0,.658-0.151,2.57,2.57,0,0,1,.847-0.151,0.917,0.917,0,0,1,.7.3,0.845,0.845,0,0,1,.282.528q0,0.83-3.2,3.279l-1.768,1.659q-2.333,2.148-2.332,2.676a1.3,1.3,0,0,0,.6.867l2.031,1.734a7.592,7.592,0,0,0,2.972,1.7,18.107,18.107,0,0,1,3.442,1.206,4.994,4.994,0,0,0,2.012.622,0.983,0.983,0,0,1,.941.283q0,0.452-2.126,2.054A7.068,7.068,0,0,1,103.265,29.28ZM95.178,14.692a3.891,3.891,0,0,0-1.655-1.244,2.038,2.038,0,0,0-1.072.471,1.311,1.311,0,0,0-.658.735,1.669,1.669,0,0,0,.809.829q0.809,0.565,1.655,1.263a2.607,2.607,0,0,0,1.166.7A0.962,0.962,0,0,0,96.08,17.1a0.934,0.934,0,0,0,.338-0.6A3.546,3.546,0,0,0,95.178,14.692Zm10.494-7.6a0.894,0.894,0,0,1-.489.245,3.845,3.845,0,0,1-.827.075,15.188,15.188,0,0,1-3.856-.7,29.436,29.436,0,0,0-7.448-.7,23.168,23.168,0,0,0-7.373.867,12.2,12.2,0,0,1-4.006.867q-2.144,0-2.144-1.545a1.158,1.158,0,0,1,.376-0.9,0.783,0.783,0,0,1,.733-0.245,2.714,2.714,0,0,0,.7.094,9.421,9.421,0,0,0,2.614-.547,19.827,19.827,0,0,1,4.834-.7Q90.851,3.8,91.04,2.743a5.618,5.618,0,0,1,.489-1.583A0.922,0.922,0,0,1,92.394.708q1.278,0,2.671,1.885a2.9,2.9,0,0,0,1.053.9,9.369,9.369,0,0,0,2.539.433,32.511,32.511,0,0,1,4.495.754,15.62,15.62,0,0,1,2.821.792,0.561,0.561,0,0,1,.3.433,1.4,1.4,0,0,1-.225.622A3.636,3.636,0,0,1,105.672,7.1ZM85.567,9.189a5.369,5.369,0,0,0,1.674-.773,1.773,1.773,0,0,1,1.053-.433,0.863,0.863,0,0,1,.734.4,1.293,1.293,0,0,1,.282.735,2.524,2.524,0,0,1-1.467,1.847,4.236,4.236,0,0,0-2.106,2.771Q85.4,15.409,85,20.2a41.015,41.015,0,0,1-.733,5.918q-0.339,1.131-.865,1.131t-0.828-1.225a8.972,8.972,0,0,1-.3-2.092,6.43,6.43,0,0,1,.226-1.7,15.2,15.2,0,0,0,.527-3.958,22.451,22.451,0,0,0-.094-2.62q-0.094-.622-0.433-0.622a3.911,3.911,0,0,0-1.5.98,3.982,3.982,0,0,1-2.37,1.206,1.592,1.592,0,0,1-1.429-.678,3.07,3.07,0,0,1-.451-1.734,3.223,3.223,0,0,1,.226-1.451,0.665,0.665,0,0,1,.583-0.4,1.41,1.41,0,0,0,.7-0.188q1.354-.829,3.78-2.035A26.79,26.79,0,0,1,85.567,9.189ZM67.643,11.9a5.17,5.17,0,0,1-2.294-.679,14.17,14.17,0,0,0-3.837-1.131,30.332,30.332,0,0,0-5.36-.452,37.112,37.112,0,0,0-5.887.49,33.121,33.121,0,0,0-5.511,1.338,12.825,12.825,0,0,1-3.4.848,1.433,1.433,0,0,1-1.3-.546,4.513,4.513,0,0,1-.357-2.205q0-1.658.752-1.659a1.651,1.651,0,0,1,.621.151,1.635,1.635,0,0,0,.621.151,5.938,5.938,0,0,0,1.129-.226,39.423,39.423,0,0,1,7.937-1.018,4.1,4.1,0,0,0,1.881-.829,3.146,3.146,0,0,0,1.317-1.319,12.924,12.924,0,0,1,.922-2.563,1.212,1.212,0,0,1,.978-0.792,3.806,3.806,0,0,1,1.617.6A1.667,1.667,0,0,1,58.54,3.2a2.772,2.772,0,0,1-.376,1.244,1.691,1.691,0,0,1-1.091.9q-1.166.339-1.166,0.7a0.635,0.635,0,0,0,.339.565,1.8,1.8,0,0,0,.94.207q6.169,0,8.05.641a2.871,2.871,0,0,0,.94.113,7.82,7.82,0,0,0,1.6-.207,10.925,10.925,0,0,1,2.276-.207l1.467,0.038a2.611,2.611,0,0,0,1.016-.151A1.443,1.443,0,0,1,73,6.89,0.109,0.109,0,0,1,73.135,7,9.4,9.4,0,0,1,71.273,9.66Q69.411,11.9,67.643,11.9ZM40.936,18.839a2.319,2.319,0,0,0,1.918.792,4.848,4.848,0,0,0,1.542-.264,29.511,29.511,0,0,0,3.385-1.658A38.033,38.033,0,0,0,51.919,15.2q1.542-1.111,2.445-1.9a9.757,9.757,0,0,0,1.2-1.187,1.285,1.285,0,0,0,.3-0.773l-0.113-.678q0-.376.752-0.377a3.993,3.993,0,0,1,1.3.188,10.719,10.719,0,0,1,2.238,1.583,31.691,31.691,0,0,1,3.028,2.827q1.335,1.433,1.712,1.941a1.732,1.732,0,0,1,.376,1.037,1.055,1.055,0,0,1-.978,1.055,9.08,9.08,0,0,0-3.592,2.017,41.078,41.078,0,0,0-4.646,5.032,3.5,3.5,0,0,1-2.332,1.583,0.677,0.677,0,0,1-.527-0.264A1.008,1.008,0,0,1,52.86,26.6a6.114,6.114,0,0,1,1.6-3.374,41.227,41.227,0,0,1,6.113-5.711,1.187,1.187,0,0,0,.489-0.9,0.9,0.9,0,0,0-.564-0.791q-0.3-.15-1.279-0.716a3.76,3.76,0,0,0-1.26-.565,2.072,2.072,0,0,0-.846.3q-0.564.3-2.821,1.941T48.158,21.44q-2.972,2.3-5.3,2.3A2.48,2.48,0,0,1,40.8,23a5.6,5.6,0,0,1-.922-2.224,11.1,11.1,0,0,1-.338-2.111q0-.622.376-0.622A1.731,1.731,0,0,1,40.936,18.839Zm-13.2,7.388a4.531,4.531,0,0,1-2.859-1.074A8.57,8.57,0,0,1,22.6,22.269a29.033,29.033,0,0,0-1.805-3.11q-0.884-1.3-1.862-2.488a11.369,11.369,0,0,0-1.26-1.395,1.056,1.056,0,0,0-.64-0.207,1.077,1.077,0,0,0-.733.754,24.661,24.661,0,0,1-2.614,3.845,15.581,15.581,0,0,1-5.3,4.052Q4.9,25.473,3.508,25.473a1.086,1.086,0,0,1-1.091-.547,12.062,12.062,0,0,1-.263-3.449,6.811,6.811,0,0,1,.113-1.64,0.39,0.39,0,0,1,.357-0.32,0.9,0.9,0,0,1,.583.415,2.89,2.89,0,0,0,2.182.9,10.654,10.654,0,0,0,3.085-.547,8.168,8.168,0,0,0,3.235-1.941,11.333,11.333,0,0,0,2.276-2.94,5.863,5.863,0,0,0,.809-2.149q0-.6-0.9-0.6a18.423,18.423,0,0,0-1.9.17,6.6,6.6,0,0,0-2.05.509,10.922,10.922,0,0,1-3.479,1.093,1.665,1.665,0,0,1-1.5-1.093,4.223,4.223,0,0,1-.545-1.564,1.686,1.686,0,0,1,.433-1.018,1.433,1.433,0,0,1,1.072-.584A37.431,37.431,0,0,0,10.2,9.641q2.144-.339,3.987-0.565a1.535,1.535,0,0,0,1.617-1.319q0.226-1.394,1.166-1.395a1.1,1.1,0,0,1,1.166.961,2.9,2.9,0,0,0,.451,1.187,1.453,1.453,0,0,0,.978.226h1.655q1.955,0,4.119.132t3.5,0.283a5.053,5.053,0,0,1,1.542.3,0.884,0.884,0,0,1,.207.716,3.687,3.687,0,0,1-.47,2.224,2.031,2.031,0,0,1-1.636.565,22.793,22.793,0,0,1-2.52-.151q-4.213-.339-5.68-0.339a0.707,0.707,0,0,0-.865.716q0,0.716,2.784,3.769A12.094,12.094,0,0,0,28.222,20.8a16.631,16.631,0,0,1,3.291,1.055,8.031,8.031,0,0,0,1.26.565,2.3,2.3,0,0,0,.564.075l0.414-.038a0.384,0.384,0,0,1,.451.415q0,0.792-2.37,2.073A8.955,8.955,0,0,1,27.733,26.227ZM30.817,6.06a3.652,3.652,0,0,1-1.467.226q-0.979,0-4.157-.264t-6.94-.264q-6.621,0-8.953,1.093A11.857,11.857,0,0,1,5.784,8.1Q4.974,8.1,4.467,6.7a7.006,7.006,0,0,1-.508-1.885,0.806,0.806,0,0,1,.828-0.98L5.351,3.912q0.526,0,2.652-.264t3.931-.565A59.282,59.282,0,0,1,21.3,2.555a53.235,53.235,0,0,1,6.376.283q2.163,0.283,3.084.509a0.985,0.985,0,0,1,.921.942,3.582,3.582,0,0,1-.188.924A1.281,1.281,0,0,1,30.817,6.06Z"/>
</svg>
